<?xml version="1.0" standalone="no"?>
<svg xmlns="http://www.w3.org/2000/svg" width="500" height="500"><defs><clipPath id="clip-path-dot-color"><circle cx="26" cy="154" r="8" transform="rotate(0,26,154)"/><path d="M 18 210v 16h 8a 8 8, 0, 0, 0, 0 -16" transform="rotate(180,26,218)"/><circle cx="26" cy="250" r="8" transform="rotate(0,26,250)"/><path d="M 34 178v 16h 8a 8 8, 0, 0, 0, 0 -16" transform="rotate(180,42,186)"/><rect x="34" y="210" width="16" height="16" transform="rotate(0,42,218)"/><path d="M 34 274v 16h 16v -8a 8 8, 0, 0, 0, -8 -8" transform="rotate(-90,42,282)"/><rect x="34" y="290" width="16" height="16" transform="rotate(0,42,298)"/><path d="M 34 306v 16h 8a 8 8, 0, 0, 0, 0 -16" transform="rotate(90,42,314)"/><circle cx="42" cy="346" r="8" transform="rotate(0,42,346)"/><path d="M 50 178v 16h 16v -8a 8 8, 0, 0, 0, -8 -8" transform="rotate(0,58,186)"/><rect x="50" y="194" width="16" height="16" transform="rotate(0,58,202)"/><rect x="50" y="210" width="16" height="16" transform="rotate(0,58,218)"/><path d="M 50 258v 16h 16v -8a 8 8, 0, 0, 0, -8 -8" transform="rotate(-90,58,266)"/><path d="M 50 274v 16h 16v -8a 8 8, 0, 0, 0, -8 -8" transform="rotate(90,58,282)"/><path d="M 66 194v 16h 16v -8a 8 8, 0, 0, 0, -8 -8" transform="rotate(0,74,202)"/><rect x="66" y="210" width="16" height="16" transform="rotate(0,74,218)"/><path d="M 66 226v 16h 16v -8a 8 8, 0, 0, 0, -8 -8" transform="rotate(180,74,234)"/><path d="M 66 258v 16h 8a 8 8, 0, 0, 0, 0 -16" transform="rotate(0,74,266)"/><path d="M 66 290v 16h 8a 8 8, 0, 0, 0, 0 -16" transform="rotate(180,74,298)"/><path d="M 82 146v 16h 8a 8 8, 0, 0, 0, 0 -16" transform="rotate(180,90,154)"/><path d="M 82 226v 16h 8a 8 8, 0, 0, 0, 0 -16" transform="rotate(0,90,234)"/><path d="M 82 274v 16h 16v -8a 8 8, 0, 0, 0, -8 -8" transform="rotate(-90,90,282)"/><rect x="82" y="290" width="16" height="16" transform="rotate(0,90,298)"/><rect x="82" y="306" width="16" height="16" transform="rotate(0,90,314)"/><rect x="82" y="322" width="16" height="16" transform="rotate(0,90,330)"/><path d="M 82 338v 16h 16v -8a 8 8, 0, 0, 0, -8 -8" transform="rotate(180,90,346)"/><rect x="98" y="146" width="16" height="16" transform="rotate(0,106,154)"/><path d="M 98 178v 16h 16v -8a 8 8, 0, 0, 0, -8 -8" transform="rotate(-90,106,186)"/><path d="M 98 194v 16h 8a 8 8, 0, 0, 0, 0 -16" transform="rotate(90,106,202)"/><path d="M 98 242v 16h 16v -8a 8 8, 0, 0, 0, -8 -8" transform="rotate(-90,106,250)"/><rect x="98" y="258" width="16" height="16" transform="rotate(0,106,266)"/><rect x="98" y="274" width="16" height="16" transform="rotate(0,106,282)"/><path d="M 98 290v 16h 16v -8a 8 8, 0, 0, 0, -8 -8" transform="rotate(90,106,298)"/><rect x="98" y="338" width="16" height="16" transform="rotate(0,106,346)"/><path d="M 114 146v 16h 8a 8 8, 0, 0, 0, 0 -16" transform="rotate(0,122,154)"/><rect x="114" y="178" width="16" height="16" transform="rotate(0,122,186)"/><circle cx="122" cy="218" r="8" transform="rotate(0,122,218)"/><rect x="114" y="242" width="16" height="16" transform="rotate(0,122,250)"/><path d="M 114 274v 16h 8a 8 8, 0, 0, 0, 0 -16" transform="rotate(0,122,282)"/><path d="M 114 306v 16h 8a 8 8, 0, 0, 0, 0 -16" transform="rotate(180,122,314)"/><path d="M 114 338v 16h 8a 8 8, 0, 0, 0, 0 -16" transform="rotate(0,122,346)"/><path d="M 130 178v 16h 8a 8 8, 0, 0, 0, 0 -16" transform="rotate(0,138,186)"/><path d="M 130 226v 16h 8a 8 8, 0, 0, 0, 0 -16" transform="rotate(-90,138,234)"/><rect x="130" y="242" width="16" height="16" transform="rotate(0,138,250)"/><path d="M 130 258v 16h 8a 8 8, 0, 0, 0, 0 -16" transform="rotate(90,138,266)"/><path d="M 130 290v 16h 8a 8 8, 0, 0, 0, 0 -16" transform="rotate(-90,138,298)"/><path d="M 130 306v 16h 16v -8a 8 8, 0, 0, 0, -8 -8" transform="rotate(90,138,314)"/><path d="M 146 34v 16h 16v -8a 8 8, 0, 0, 0, -8 -8" transform="rotate(-90,154,42)"/><rect x="146" y="50" width="16" height="16" transform="rotate(0,154,58)"/><rect x="146" y="66" width="16" height="16" transform="rotate(0,154,74)"/><rect x="146" y="82" width="16" height="16" transform="rotate(0,154,90)"/><rect x="146" y="98" width="16" height="16" transform="rotate(0,154,106)"/><rect x="146" y="114" width="16" height="16" transform="rotate(0,154,122)"/><path d="M 146 130v 16h 16v -8a 8 8, 0, 0, 0, -8 -8" transform="rotate(180,154,138)"/><circle cx="154" cy="170" r="8" transform="rotate(0,154,170)"/><path d="M 146 194v 16h 16v -8a 8 8, 0, 0, 0, -8 -8" transform="rotate(-90,154,202)"/><path d="M 146 210v 16h 8a 8 8, 0, 0, 0, 0 -16" transform="rotate(90,154,218)"/><rect x="146" y="242" width="16" height="16" transform="rotate(0,154,250)"/><path d="M 146 274v 16h 8a 8 8, 0, 0, 0, 0 -16" transform="rotate(180,154,282)"/><path d="M 146 386v 16h 16v -8a 8 8, 0, 0, 0, -8 -8" transform="rotate(-90,154,394)"/><path d="M 146 402v 16h 8a 8 8, 0, 0, 0, 0 -16" transform="rotate(90,154,410)"/><path d="M 146 466v 16h 8a 8 8, 0, 0, 0, 0 -16" transform="rotate(180,154,474)"/><path d="M 162 34v 16h 16v -8a 8 8, 0, 0, 0, -8 -8" transform="rotate(0,170,42)"/><rect x="162" y="50" width="16" height="16" transform="rotate(0,170,58)"/><rect x="162" y="82" width="16" height="16" transform="rotate(0,170,90)"/><path d="M 162 130v 16h 16v -8a 8 8, 0, 0, 0, -8 -8" transform="rotate(0,170,138)"/><path d="M 162 146v 16h 8a 8 8, 0, 0, 0, 0 -16" transform="rotate(90,170,154)"/><path d="M 162 178v 16h 16v -8a 8 8, 0, 0, 0, -8 -8" transform="rotate(-90,170,186)"/><rect x="162" y="194" width="16" height="16" transform="rotate(0,170,202)"/><rect x="162" y="242" width="16" height="16" transform="rotate(0,170,250)"/><rect x="162" y="258" width="16" height="16" transform="rotate(0,170,266)"/><rect x="162" y="274" width="16" height="16" transform="rotate(0,170,282)"/><circle cx="170" cy="314" r="8" transform="rotate(0,170,314)"/><path d="M 162 338v 16h 8a 8 8, 0, 0, 0, 0 -16" transform="rotate(-90,170,346)"/><path d="M 162 354v 16h 16v -8a 8 8, 0, 0, 0, -8 -8" transform="rotate(180,170,362)"/><path d="M 162 386v 16h 8a 8 8, 0, 0, 0, 0 -16" transform="rotate(0,170,394)"/><path d="M 162 418v 16h 16v -8a 8 8, 0, 0, 0, -8 -8" transform="rotate(-90,170,426)"/><path d="M 162 434v 16h 16v -8a 8 8, 0, 0, 0, -8 -8" transform="rotate(180,170,442)"/><path d="M 162 466v 16h 8a 8 8, 0, 0, 0, 0 -16" transform="rotate(0,170,474)"/><path d="M 178 50v 16h 16v -8a 8 8, 0, 0, 0, -8 -8" transform="rotate(0,186,58)"/><rect x="178" y="66" width="16" height="16" transform="rotate(0,186,74)"/><path d="M 178 82v 16h 16v -8a 8 8, 0, 0, 0, -8 -8" transform="rotate(90,186,90)"/><circle cx="186" cy="122" r="8" transform="rotate(0,186,122)"/><rect x="178" y="178" width="16" height="16" transform="rotate(0,186,186)"/><rect x="178" y="194" width="16" height="16" transform="rotate(0,186,202)"/><path d="M 178 242v 16h 8a 8 8, 0, 0, 0, 0 -16" transform="rotate(0,186,250)"/><rect x="178" y="274" width="16" height="16" transform="rotate(0,186,282)"/><path d="M 178 322v 16h 8a 8 8, 0, 0, 0, 0 -16" transform="rotate(180,186,330)"/><rect x="178" y="354" width="16" height="16" transform="rotate(0,186,362)"/><path d="M 178 370v 16h 16v -8a 8 8, 0, 0, 0, -8 -8" transform="rotate(180,186,378)"/><rect x="178" y="418" width="16" height="16" transform="rotate(0,186,426)"/><path d="M 178 434v 16h 16v -8a 8 8, 0, 0, 0, -8 -8" transform="rotate(90,186,442)"/><path d="M 194 18v 16h 16v -8a 8 8, 0, 0, 0, -8 -8" transform="rotate(-90,202,26)"/><path d="M 194 34v 16h 16v -8a 8 8, 0, 0, 0, -8 -8" transform="rotate(180,202,42)"/><path d="M 194 66v 16h 8a 8 8, 0, 0, 0, 0 -16" transform="rotate(0,202,74)"/><circle cx="202" cy="154" r="8" transform="rotate(0,202,154)"/><rect x="194" y="178" width="16" height="16" transform="rotate(0,202,186)"/><path d="M 194 194v 16h 16v -8a 8 8, 0, 0, 0, -8 -8" transform="rotate(90,202,202)"/><path d="M 194 258v 16h 16v -8a 8 8, 0, 0, 0, -8 -8" transform="rotate(-90,202,266)"/><path d="M 194 274v 16h 16v -8a 8 8, 0, 0, 0, -8 -8" transform="rotate(90,202,282)"/><rect x="194" y="322" width="16" height="16" transform="rotate(0,202,330)"/><rect x="194" y="338" width="16" height="16" transform="rotate(0,202,346)"/><rect x="194" y="354" width="16" height="16" transform="rotate(0,202,362)"/><rect x="194" y="370" width="16" height="16" transform="rotate(0,202,378)"/><path d="M 194 386v 16h 16v -8a 8 8, 0, 0, 0, -8 -8" transform="rotate(180,202,394)"/><path d="M 194 418v 16h 8a 8 8, 0, 0, 0, 0 -16" transform="rotate(0,202,426)"/><path d="M 194 450v 16h 8a 8 8, 0, 0, 0, 0 -16" transform="rotate(180,202,458)"/><path d="M 210 18v 16h 16v -8a 8 8, 0, 0, 0, -8 -8" transform="rotate(0,218,26)"/><rect x="210" y="34" width="16" height="16" transform="rotate(0,218,42)"/><path d="M 210 114v 16h 8a 8 8, 0, 0, 0, 0 -16" transform="rotate(-90,218,122)"/><path d="M 210 130v 16h 8a 8 8, 0, 0, 0, 0 -16" transform="rotate(90,218,138)"/><path d="M 210 162v 16h 8a 8 8, 0, 0, 0, 0 -16" transform="rotate(-90,218,170)"/><rect x="210" y="178" width="16" height="16" transform="rotate(0,218,186)"/><path d="M 210 210v 16h 8a 8 8, 0, 0, 0, 0 -16" transform="rotate(-90,218,218)"/><rect x="210" y="226" width="16" height="16" transform="rotate(0,218,234)"/><rect x="210" y="242" width="16" height="16" transform="rotate(0,218,250)"/><rect x="210" y="258" width="16" height="16" transform="rotate(0,218,266)"/><circle cx="218" cy="298" r="8" transform="rotate(0,218,298)"/><rect x="210" y="322" width="16" height="16" transform="rotate(0,218,330)"/><rect x="210" y="354" width="16" height="16" transform="rotate(0,218,362)"/><path d="M 210 386v 16h 8a 8 8, 0, 0, 0, 0 -16" transform="rotate(0,218,394)"/><path d="M 210 434v 16h 8a 8 8, 0, 0, 0, 0 -16" transform="rotate(-90,218,442)"/><rect x="210" y="450" width="16" height="16" transform="rotate(0,218,458)"/><path d="M 210 466v 16h 16v -8a 8 8, 0, 0, 0, -8 -8" transform="rotate(180,218,474)"/><rect x="226" y="34" width="16" height="16" transform="rotate(0,234,42)"/><rect x="226" y="50" width="16" height="16" transform="rotate(0,234,58)"/><path d="M 226 66v 16h 16v -8a 8 8, 0, 0, 0, -8 -8" transform="rotate(180,234,74)"/><path d="M 226 98v 16h 8a 8 8, 0, 0, 0, 0 -16" transform="rotate(180,234,106)"/><path d="M 226 146v 16h 8a 8 8, 0, 0, 0, 0 -16" transform="rotate(180,234,154)"/><rect x="226" y="178" width="16" height="16" transform="rotate(0,234,186)"/><path d="M 226 194v 16h 8a 8 8, 0, 0, 0, 0 -16" transform="rotate(90,234,202)"/><path d="M 226 258v 16h 8a 8 8, 0, 0, 0, 0 -16" transform="rotate(0,234,266)"/><path d="M 226 306v 16h 16v -8a 8 8, 0, 0, 0, -8 -8" transform="rotate(-90,234,314)"/><rect x="226" y="322" width="16" height="16" transform="rotate(0,234,330)"/><rect x="226" y="338" width="16" height="16" transform="rotate(0,234,346)"/><rect x="226" y="354" width="16" height="16" transform="rotate(0,234,362)"/><path d="M 226 370v 16h 8a 8 8, 0, 0, 0, 0 -16" transform="rotate(90,234,378)"/><path d="M 226 402v 16h 8a 8 8, 0, 0, 0, 0 -16" transform="rotate(-90,234,410)"/><path d="M 226 418v 16h 8a 8 8, 0, 0, 0, 0 -16" transform="rotate(90,234,426)"/><rect x="226" y="450" width="16" height="16" transform="rotate(0,234,458)"/><path d="M 226 466v 16h 16v -8a 8 8, 0, 0, 0, -8 -8" transform="rotate(90,234,474)"/><rect x="242" y="34" width="16" height="16" transform="rotate(0,250,42)"/><rect x="242" y="50" width="16" height="16" transform="rotate(0,250,58)"/><path d="M 242 66v 16h 16v -8a 8 8, 0, 0, 0, -8 -8" transform="rotate(90,250,74)"/><path d="M 242 98v 16h 16v -8a 8 8, 0, 0, 0, -8 -8" transform="rotate(0,250,106)"/><rect x="242" y="114" width="16" height="16" transform="rotate(0,250,122)"/><rect x="242" y="130" width="16" height="16" transform="rotate(0,250,138)"/><rect x="242" y="146" width="16" height="16" transform="rotate(0,250,154)"/><path d="M 242 178v 16h 8a 8 8, 0, 0, 0, 0 -16" transform="rotate(0,250,186)"/><circle cx="250" cy="218" r="8" transform="rotate(0,250,218)"/><path d="M 242 242v 16h 8a 8 8, 0, 0, 0, 0 -16" transform="rotate(180,250,250)"/><path d="M 242 306v 16h 8a 8 8, 0, 0, 0, 0 -16" transform="rotate(0,250,314)"/><path d="M 242 354v 16h 8a 8 8, 0, 0, 0, 0 -16" transform="rotate(0,250,362)"/><circle cx="250" cy="394" r="8" transform="rotate(0,250,394)"/><rect x="242" y="450" width="16" height="16" transform="rotate(0,250,458)"/><rect x="258" y="34" width="16" height="16" transform="rotate(0,266,42)"/><circle cx="266" cy="90" r="8" transform="rotate(0,266,90)"/><rect x="258" y="146" width="16" height="16" transform="rotate(0,266,154)"/><path d="M 258 226v 16h 16v -8a 8 8, 0, 0, 0, -8 -8" transform="rotate(-90,266,234)"/><rect x="258" y="242" width="16" height="16" transform="rotate(0,266,250)"/><path d="M 258 322v 16h 8a 8 8, 0, 0, 0, 0 -16" transform="rotate(-90,266,330)"/><path d="M 258 338v 16h 16v -8a 8 8, 0, 0, 0, -8 -8" transform="rotate(180,266,346)"/><path d="M 258 402v 16h 16v -8a 8 8, 0, 0, 0, -8 -8" transform="rotate(-90,266,410)"/><path d="M 258 418v 16h 16v -8a 8 8, 0, 0, 0, -8 -8" transform="rotate(180,266,426)"/><rect x="258" y="450" width="16" height="16" transform="rotate(0,266,458)"/><path d="M 258 466v 16h 8a 8 8, 0, 0, 0, 0 -16" transform="rotate(90,266,474)"/><rect x="274" y="34" width="16" height="16" transform="rotate(0,282,42)"/><circle cx="282" cy="122" r="8" transform="rotate(0,282,122)"/><path d="M 274 146v 16h 16v -8a 8 8, 0, 0, 0, -8 -8" transform="rotate(0,282,154)"/><path d="M 274 162v 16h 16v -8a 8 8, 0, 0, 0, -8 -8" transform="rotate(180,282,170)"/><path d="M 274 194v 16h 8a 8 8, 0, 0, 0, 0 -16" transform="rotate(180,282,202)"/><path d="M 274 226v 16h 16v -8a 8 8, 0, 0, 0, -8 -8" transform="rotate(0,282,234)"/><rect x="274" y="242" width="16" height="16" transform="rotate(0,282,250)"/><path d="M 274 258v 16h 16v -8a 8 8, 0, 0, 0, -8 -8" transform="rotate(180,282,266)"/><circle cx="282" cy="314" r="8" transform="rotate(0,282,314)"/><path d="M 274 338v 16h 16v -8a 8 8, 0, 0, 0, -8 -8" transform="rotate(0,282,346)"/><path d="M 274 354v 16h 8a 8 8, 0, 0, 0, 0 -16" transform="rotate(90,282,362)"/><rect x="274" y="402" width="16" height="16" transform="rotate(0,282,410)"/><rect x="274" y="418" width="16" height="16" transform="rotate(0,282,426)"/><rect x="274" y="434" width="16" height="16" transform="rotate(0,282,442)"/><rect x="274" y="450" width="16" height="16" transform="rotate(0,282,458)"/><path d="M 290 18v 16h 16v -8a 8 8, 0, 0, 0, -8 -8" transform="rotate(-90,298,26)"/><rect x="290" y="34" width="16" height="16" transform="rotate(0,298,42)"/><rect x="290" y="50" width="16" height="16" transform="rotate(0,298,58)"/><path d="M 290 66v 16h 16v -8a 8 8, 0, 0, 0, -8 -8" transform="rotate(180,298,74)"/><path d="M 290 98v 16h 8a 8 8, 0, 0, 0, 0 -16" transform="rotate(180,298,106)"/><path d="M 290 130v 16h 8a 8 8, 0, 0, 0, 0 -16" transform="rotate(180,298,138)"/><path d="M 290 162v 16h 8a 8 8, 0, 0, 0, 0 -16" transform="rotate(0,298,170)"/><rect x="290" y="194" width="16" height="16" transform="rotate(0,298,202)"/><path d="M 290 242v 16h 16v -8a 8 8, 0, 0, 0, -8 -8" transform="rotate(0,298,250)"/><rect x="290" y="258" width="16" height="16" transform="rotate(0,298,266)"/><rect x="290" y="274" width="16" height="16" transform="rotate(0,298,282)"/><path d="M 290 290v 16h 8a 8 8, 0, 0, 0, 0 -16" transform="rotate(90,298,298)"/><rect x="290" y="402" width="16" height="16" transform="rotate(0,298,410)"/><path d="M 290 450v 16h 16v -8a 8 8, 0, 0, 0, -8 -8" transform="rotate(0,298,458)"/><path d="M 290 466v 16h 8a 8 8, 0, 0, 0, 0 -16" transform="rotate(90,298,474)"/><rect x="306" y="18" width="16" height="16" transform="rotate(0,314,26)"/><path d="M 306 66v 16h 16v -8a 8 8, 0, 0, 0, -8 -8" transform="rotate(0,314,74)"/><rect x="306" y="82" width="16" height="16" transform="rotate(0,314,90)"/><rect x="306" y="98" width="16" height="16" transform="rotate(0,314,106)"/><rect x="306" y="114" width="16" height="16" transform="rotate(0,314,122)"/><rect x="306" y="130" width="16" height="16" transform="rotate(0,314,138)"/><path d="M 306 146v 16h 16v -8a 8 8, 0, 0, 0, -8 -8" transform="rotate(180,314,154)"/><rect x="306" y="194" width="16" height="16" transform="rotate(0,314,202)"/><rect x="306" y="210" width="16" height="16" transform="rotate(0,314,218)"/><path d="M 306 226v 16h 16v -8a 8 8, 0, 0, 0, -8 -8" transform="rotate(180,314,234)"/><circle cx="314" cy="346" r="8" transform="rotate(0,314,346)"/><path d="M 306 370v 16h 8a 8 8, 0, 0, 0, 0 -16" transform="rotate(180,314,378)"/><rect x="306" y="402" width="16" height="16" transform="rotate(0,314,410)"/><path d="M 306 418v 16h 16v -8a 8 8, 0, 0, 0, -8 -8" transform="rotate(180,314,426)"/><rect x="322" y="18" width="16" height="16" transform="rotate(0,330,26)"/><path d="M 322 82v 16h 8a 8 8, 0, 0, 0, 0 -16" transform="rotate(0,330,90)"/><path d="M 322 146v 16h 8a 8 8, 0, 0, 0, 0 -16" transform="rotate(0,330,154)"/><path d="M 322 178v 16h 16v -8a 8 8, 0, 0, 0, -8 -8" transform="rotate(-90,330,186)"/><path d="M 322 194v 16h 16v -8a 8 8, 0, 0, 0, -8 -8" transform="rotate(90,330,202)"/><path d="M 322 226v 16h 16v -8a 8 8, 0, 0, 0, -8 -8" transform="rotate(0,330,234)"/><path d="M 322 242v 16h 16v -8a 8 8, 0, 0, 0, -8 -8" transform="rotate(180,330,250)"/><circle cx="330" cy="282" r="8" transform="rotate(0,330,282)"/><circle cx="330" cy="314" r="8" transform="rotate(0,330,314)"/><rect x="322" y="370" width="16" height="16" transform="rotate(0,330,378)"/><rect x="322" y="402" width="16" height="16" transform="rotate(0,330,410)"/><rect x="322" y="418" width="16" height="16" transform="rotate(0,330,426)"/><path d="M 338 18v 16h 8a 8 8, 0, 0, 0, 0 -16" transform="rotate(0,346,26)"/><path d="M 338 98v 16h 8a 8 8, 0, 0, 0, 0 -16" transform="rotate(-90,346,106)"/><path d="M 338 114v 16h 8a 8 8, 0, 0, 0, 0 -16" transform="rotate(90,346,122)"/><rect x="338" y="178" width="16" height="16" transform="rotate(0,346,186)"/><circle cx="346" cy="218" r="8" transform="rotate(0,346,218)"/><path d="M 338 242v 16h 8a 8 8, 0, 0, 0, 0 -16" transform="rotate(0,346,250)"/><path d="M 338 290v 16h 8a 8 8, 0, 0, 0, 0 -16" transform="rotate(180,346,298)"/><path d="M 338 338v 16h 16v -8a 8 8, 0, 0, 0, -8 -8" transform="rotate(-90,346,346)"/><rect x="338" y="354" width="16" height="16" transform="rotate(0,346,362)"/><rect x="338" y="370" width="16" height="16" transform="rotate(0,346,378)"/><rect x="338" y="386" width="16" height="16" transform="rotate(0,346,394)"/><rect x="338" y="402" width="16" height="16" transform="rotate(0,346,410)"/><rect x="338" y="418" width="16" height="16" transform="rotate(0,346,426)"/><path d="M 338 434v 16h 8a 8 8, 0, 0, 0, 0 -16" transform="rotate(90,346,442)"/><path d="M 354 146v 16h 8a 8 8, 0, 0, 0, 0 -16" transform="rotate(180,362,154)"/><rect x="354" y="178" width="16" height="16" transform="rotate(0,362,186)"/><path d="M 354 226v 16h 8a 8 8, 0, 0, 0, 0 -16" transform="rotate(180,362,234)"/><path d="M 354 274v 16h 8a 8 8, 0, 0, 0, 0 -16" transform="rotate(-90,362,282)"/><rect x="354" y="290" width="16" height="16" transform="rotate(0,362,298)"/><rect x="354" y="338" width="16" height="16" transform="rotate(0,362,346)"/><rect x="354" y="402" width="16" height="16" transform="rotate(0,362,410)"/><path d="M 354 418v 16h 16v -8a 8 8, 0, 0, 0, -8 -8" transform="rotate(90,362,426)"/><circle cx="362" cy="474" r="8" transform="rotate(0,362,474)"/><rect x="370" y="146" width="16" height="16" transform="rotate(0,378,154)"/><rect x="370" y="162" width="16" height="16" transform="rotate(0,378,170)"/><rect x="370" y="178" width="16" height="16" transform="rotate(0,378,186)"/><rect x="370" y="194" width="16" height="16" transform="rotate(0,378,202)"/><rect x="370" y="210" width="16" height="16" transform="rotate(0,378,218)"/><rect x="370" y="226" width="16" height="16" transform="rotate(0,378,234)"/><rect x="370" y="242" width="16" height="16" transform="rotate(0,378,250)"/><path d="M 370 258v 16h 8a 8 8, 0, 0, 0, 0 -16" transform="rotate(90,378,266)"/><rect x="370" y="290" width="16" height="16" transform="rotate(0,378,298)"/><path d="M 370 322v 16h 16v -8a 8 8, 0, 0, 0, -8 -8" transform="rotate(-90,378,330)"/><rect x="370" y="338" width="16" height="16" transform="rotate(0,378,346)"/><circle cx="378" cy="378" r="8" transform="rotate(0,378,378)"/><rect x="370" y="402" width="16" height="16" transform="rotate(0,378,410)"/><rect x="386" y="146" width="16" height="16" transform="rotate(0,394,154)"/><rect x="386" y="162" width="16" height="16" transform="rotate(0,394,170)"/><path d="M 386 178v 16h 16v -8a 8 8, 0, 0, 0, -8 -8" transform="rotate(90,394,186)"/><rect x="386" y="210" width="16" height="16" transform="rotate(0,394,218)"/><path d="M 386 274v 16h 16v -8a 8 8, 0, 0, 0, -8 -8" transform="rotate(-90,394,282)"/><rect x="386" y="290" width="16" height="16" transform="rotate(0,394,298)"/><rect x="386" y="306" width="16" height="16" transform="rotate(0,394,314)"/><rect x="386" y="322" width="16" height="16" transform="rotate(0,394,330)"/><rect x="386" y="338" width="16" height="16" transform="rotate(0,394,346)"/><rect x="386" y="402" width="16" height="16" transform="rotate(0,394,410)"/><path d="M 386 418v 16h 16v -8a 8 8, 0, 0, 0, -8 -8" transform="rotate(180,394,426)"/><path d="M 386 466v 16h 8a 8 8, 0, 0, 0, 0 -16" transform="rotate(180,394,474)"/><rect x="402" y="146" width="16" height="16" transform="rotate(0,410,154)"/><path d="M 402 194v 16h 16v -8a 8 8, 0, 0, 0, -8 -8" transform="rotate(-90,410,202)"/><path d="M 402 210v 16h 16v -8a 8 8, 0, 0, 0, -8 -8" transform="rotate(90,410,218)"/><circle cx="410" cy="250" r="8" transform="rotate(0,410,250)"/><path d="M 402 274v 16h 8a 8 8, 0, 0, 0, 0 -16" transform="rotate(0,410,282)"/><rect x="402" y="338" width="16" height="16" transform="rotate(0,410,346)"/><rect x="402" y="354" width="16" height="16" transform="rotate(0,410,362)"/><rect x="402" y="370" width="16" height="16" transform="rotate(0,410,378)"/><rect x="402" y="386" width="16" height="16" transform="rotate(0,410,394)"/><rect x="402" y="402" width="16" height="16" transform="rotate(0,410,410)"/><rect x="402" y="418" width="16" height="16" transform="rotate(0,410,426)"/><rect x="402" y="434" width="16" height="16" transform="rotate(0,410,442)"/><rect x="402" y="450" width="16" height="16" transform="rotate(0,410,458)"/><path d="M 402 466v 16h 16v -8a 8 8, 0, 0, 0, -8 -8" transform="rotate(90,410,474)"/><rect x="418" y="146" width="16" height="16" transform="rotate(0,426,154)"/><rect x="418" y="162" width="16" height="16" transform="rotate(0,426,170)"/><rect x="418" y="178" width="16" height="16" transform="rotate(0,426,186)"/><path d="M 418 194v 16h 16v -8a 8 8, 0, 0, 0, -8 -8" transform="rotate(90,426,202)"/><circle cx="426" cy="234" r="8" transform="rotate(0,426,234)"/><path d="M 418 258v 16h 8a 8 8, 0, 0, 0, 0 -16" transform="rotate(180,426,266)"/><path d="M 418 290v 16h 8a 8 8, 0, 0, 0, 0 -16" transform="rotate(-90,426,298)"/><rect x="418" y="306" width="16" height="16" transform="rotate(0,426,314)"/><rect x="418" y="322" width="16" height="16" transform="rotate(0,426,330)"/><rect x="418" y="338" width="16" height="16" transform="rotate(0,426,346)"/><rect x="418" y="354" width="16" height="16" transform="rotate(0,426,362)"/><rect x="418" y="386" width="16" height="16" transform="rotate(0,426,394)"/><rect x="434" y="146" width="16" height="16" transform="rotate(0,442,154)"/><rect x="434" y="258" width="16" height="16" transform="rotate(0,442,266)"/><path d="M 434 274v 16h 8a 8 8, 0, 0, 0, 0 -16" transform="rotate(90,442,282)"/><path d="M 434 306v 16h 16v -8a 8 8, 0, 0, 0, -8 -8" transform="rotate(0,442,314)"/><rect x="434" y="322" width="16" height="16" transform="rotate(0,442,330)"/><rect x="434" y="338" width="16" height="16" transform="rotate(0,442,346)"/><rect x="434" y="354" width="16" height="16" transform="rotate(0,442,362)"/><rect x="434" y="370" width="16" height="16" transform="rotate(0,442,378)"/><rect x="434" y="386" width="16" height="16" transform="rotate(0,442,394)"/><path d="M 434 402v 16h 16v -8a 8 8, 0, 0, 0, -8 -8" transform="rotate(180,442,410)"/><path d="M 434 450v 16h 8a 8 8, 0, 0, 0, 0 -16" transform="rotate(180,442,458)"/><path d="M 450 146v 16h 8a 8 8, 0, 0, 0, 0 -16" transform="rotate(0,458,154)"/><path d="M 450 210v 16h 8a 8 8, 0, 0, 0, 0 -16" transform="rotate(-90,458,218)"/><path d="M 450 226v 16h 16v -8a 8 8, 0, 0, 0, -8 -8" transform="rotate(180,458,234)"/><rect x="450" y="258" width="16" height="16" transform="rotate(0,458,266)"/><rect x="450" y="370" width="16" height="16" transform="rotate(0,458,378)"/><rect x="450" y="402" width="16" height="16" transform="rotate(0,458,410)"/><path d="M 450 418v 16h 16v -8a 8 8, 0, 0, 0, -8 -8" transform="rotate(180,458,426)"/><path d="M 450 450v 16h 8a 8 8, 0, 0, 0, 0 -16" transform="rotate(0,458,458)"/><circle cx="474" cy="170" r="8" transform="rotate(0,474,170)"/><path d="M 466 226v 16h 16v -8a 8 8, 0, 0, 0, -8 -8" transform="rotate(0,474,234)"/><rect x="466" y="242" width="16" height="16" transform="rotate(0,474,250)"/><path d="M 466 258v 16h 16v -8a 8 8, 0, 0, 0, -8 -8" transform="rotate(90,474,266)"/><path d="M 466 290v 16h 8a 8 8, 0, 0, 0, 0 -16" transform="rotate(-90,474,298)"/><rect x="466" y="306" width="16" height="16" transform="rotate(0,474,314)"/><rect x="466" y="322" width="16" height="16" transform="rotate(0,474,330)"/><rect x="466" y="338" width="16" height="16" transform="rotate(0,474,346)"/><rect x="466" y="354" width="16" height="16" transform="rotate(0,474,362)"/><path d="M 466 370v 16h 16v -8a 8 8, 0, 0, 0, -8 -8" transform="rotate(90,474,378)"/><path d="M 466 402v 16h 16v -8a 8 8, 0, 0, 0, -8 -8" transform="rotate(0,474,410)"/><rect x="466" y="418" width="16" height="16" transform="rotate(0,474,426)"/><path d="M 466 434v 16h 8a 8 8, 0, 0, 0, 0 -16" transform="rotate(90,474,442)"/></clipPath><clipPath id="clip-path-corners-square-color-0-0"><path clip-rule="evenodd" d="M 18 18v 112h 112v -112zM 34 34h 80v 80h -80z" transform="rotate(0,74,74)"/></clipPath><clipPath id="clip-path-corners-dot-color-0-0"><rect x="50" y="50" width="48" height="48" transform="rotate(0,74,74)"/></clipPath><clipPath id="clip-path-corners-square-color-1-0"><path clip-rule="evenodd" d="M 370 18v 112h 112v -112zM 386 34h 80v 80h -80z" transform="rotate(90,426,74)"/></clipPath><clipPath id="clip-path-corners-dot-color-1-0"><rect x="402" y="50" width="48" height="48" transform="rotate(90,426,74)"/></clipPath><clipPath id="clip-path-corners-square-color-0-1"><path clip-rule="evenodd" d="M 18 370v 112h 112v -112zM 34 386h 80v 80h -80z" transform="rotate(-90,74,426)"/></clipPath><clipPath id="clip-path-corners-dot-color-0-1"><rect x="50" y="402" width="48" height="48" transform="rotate(-90,74,426)"/></clipPath></defs><rect x="0" y="0" height="500" width="500" clip-path="url('#clip-path-background-color')" fill="#fff"/><rect x="0" y="0" height="500" width="500" clip-path="url('#clip-path-dot-color')" fill="#000000"/><rect x="18" y="18" height="112" width="112" clip-path="url('#clip-path-corners-square-color-0-0')" fill="#000000"/><rect x="50" y="50" height="48" width="48" clip-path="url('#clip-path-corners-dot-color-0-0')" fill="#000000"/><rect x="370" y="18" height="112" width="112" clip-path="url('#clip-path-corners-square-color-1-0')" fill="#000000"/><rect x="402" y="50" height="48" width="48" clip-path="url('#clip-path-corners-dot-color-1-0')" fill="#000000"/><rect x="18" y="370" height="112" width="112" clip-path="url('#clip-path-corners-square-color-0-1')" fill="#000000"/><rect x="50" y="402" height="48" width="48" clip-path="url('#clip-path-corners-dot-color-0-1')" fill="#000000"/></svg>